# Blender 4.3.2
# www.blender.org
mtllib panacek.mtl
o Icosphere
v -0.099955 0.135909 0.307624
v 0.723607 3.952904 0.525725
v -0.276388 3.952904 0.850649
v -0.894426 3.952909 0.000000
v -0.276388 3.952904 -0.850649
v 0.723607 3.952904 -0.525725
v 0.276388 4.847344 0.850649
v -0.723607 4.847343 0.525725
v -0.723607 4.847343 -0.525725
v 0.276388 4.847344 -0.850649
v 0.894426 4.847340 0.000000
v 0.000000 5.400124 0.000000
v -0.162456 3.549470 0.499995
v 0.425323 3.549470 0.309011
v 0.262869 3.874386 0.809012
v 0.850648 3.874388 0.000000
v 0.425323 3.549470 -0.309011
v -0.525730 3.549472 0.000000
v -0.688189 3.874388 0.499997
v -0.162456 3.549470 -0.499995
v -0.688189 3.874388 -0.499997
v 0.262869 3.874386 -0.809012
v 0.951058 4.400124 0.309013
v 0.951058 4.400124 -0.309013
v 0.000000 4.400124 1.000000
v 0.587786 4.400124 0.809017
v -0.951058 4.400124 0.309013
v -0.587786 4.400124 0.809017
v -0.587786 4.400124 -0.809017
v -0.951058 4.400124 -0.309013
v 0.587786 4.400124 -0.809017
v 0.000000 4.400124 -1.000000
v 0.688189 4.925860 0.499997
v -0.262869 4.925862 0.809012
v -0.850648 4.925860 0.000000
v -0.262869 4.925862 -0.809012
v 0.688189 4.925860 -0.499997
v 0.162456 5.250778 0.499995
v 0.525730 5.250776 0.000000
v -0.425323 5.250778 0.309011
v -0.425323 5.250778 -0.309011
v 0.162456 5.250778 -0.499995
v -0.099951 3.492010 0.307624
v -0.323454 3.492010 0.000000
v -0.099951 3.492010 -0.307624
v 0.261681 3.492010 -0.190120
v 0.261681 3.492010 0.190120
v -0.323458 0.135910 0.000000
v -0.099955 0.135909 -0.307624
v 0.261678 0.135909 -0.190120
v 0.261678 0.135909 0.190120
v 0.261678 0.135909 0.000000
v 0.425323 3.549470 0.000000
v 0.261681 3.492010 0.000000
v 0.080861 0.135909 -0.248872
v 0.080861 0.135909 0.248872
v 0.131434 3.549470 -0.404503
v 0.131434 3.549470 0.404503
v 0.080865 3.492010 0.248872
v 0.080865 3.492010 -0.248872
v -0.030890 0.135909 0.000000
v 0.261677 -1.755121 0.627857
v 0.261677 -1.755121 0.817977
v -0.099956 -1.755121 0.935481
v -0.323459 -1.755120 0.627857
v 0.080860 -1.755121 0.876729
v -0.030891 -1.755121 0.627857
v 0.080860 -1.755121 -0.871039
v 0.261677 -1.755121 -0.812287
v -0.323459 -1.755120 -0.622167
v -0.099956 -1.755121 -0.929791
v 0.261677 -1.755121 -0.622167
v -0.030891 -1.755121 -0.622167
v 0.261633 2.636949 -1.051179
v 0.080864 2.407021 -1.375907
v -0.099952 2.636949 -0.307624
v -0.323455 2.636950 0.000000
v -0.099952 2.636949 0.307624
v 0.261680 2.636949 0.000000
v 0.261633 2.636949 1.051179
v 0.080864 2.407021 1.375907
v 0.080864 2.407021 -0.248872
v 0.080864 2.866876 -1.375907
v 0.080864 2.866876 -0.248872
v 0.261633 2.636949 -0.190136
v 0.080864 2.407021 0.248872
v 0.261633 2.636949 0.190136
v 0.080864 2.866876 0.248872
v -0.099952 2.636949 -1.700720
v 0.080864 2.866876 1.375907
v -0.099952 2.636949 1.700720
vn 0.3313 -0.9435 -0.0000
vn 0.7002 -0.6617 0.2680
vn -0.2680 -0.9435 -0.1947
vn 0.1024 -0.9435 -0.3151
vn 0.1024 -0.9435 0.3151
vn 0.9050 -0.3304 0.2680
vn 0.0247 -0.3304 0.9435
vn -0.8897 -0.3304 0.3151
vn -0.5746 -0.3304 -0.7488
vn 0.5346 -0.3304 -0.7779
vn 0.8026 -0.1256 0.5831
vn -0.3066 -0.1256 0.9435
vn -0.9921 -0.1256 -0.0000
vn -0.3066 -0.1256 -0.9435
vn 0.8026 -0.1256 -0.5831
vn 0.4089 0.6617 0.6284
vn -0.4713 0.6617 0.5831
vn -0.7002 0.6617 -0.2680
vn 0.0385 0.6617 -0.7488
vn 0.7240 0.6617 -0.1947
vn 0.2680 0.9435 -0.1947
vn 0.4911 0.7947 -0.3568
vn 0.4089 0.6617 -0.6284
vn -0.1024 0.9435 -0.3151
vn -0.1876 0.7947 -0.5773
vn -0.4713 0.6617 -0.5831
vn -0.3313 0.9435 -0.0000
vn -0.6071 0.7947 -0.0000
vn -0.7002 0.6617 0.2680
vn -0.1024 0.9435 0.3151
vn -0.1876 0.7947 0.5773
vn 0.0385 0.6617 0.7488
vn 0.2680 0.9435 0.1947
vn 0.4911 0.7947 0.3568
vn 0.7240 0.6617 0.1947
vn 0.8897 0.3304 -0.3151
vn 0.7947 0.1876 -0.5773
vn 0.5746 0.3304 -0.7488
vn -0.0247 0.3304 -0.9435
vn -0.3035 0.1876 -0.9342
vn -0.5346 0.3304 -0.7779
vn -0.9050 0.3304 -0.2680
vn -0.9822 0.1876 -0.0000
vn -0.9050 0.3304 0.2680
vn -0.5346 0.3304 0.7779
vn -0.3035 0.1876 0.9342
vn -0.0247 0.3304 0.9435
vn 0.5746 0.3304 0.7488
vn 0.7947 0.1876 0.5773
vn 0.8897 0.3304 0.3151
vn 0.3066 0.1256 -0.9435
vn 0.3035 -0.1876 -0.9342
vn 0.0247 -0.3304 -0.9435
vn -0.8026 0.1256 -0.5831
vn -0.7947 -0.1876 -0.5773
vn -0.8897 -0.3304 -0.3151
vn -0.8026 0.1256 0.5831
vn -0.7947 -0.1876 0.5773
vn -0.5746 -0.3304 0.7488
vn 0.3066 0.1256 0.9435
vn 0.3035 -0.1876 0.9342
vn 0.5346 -0.3304 0.7779
vn 0.9921 0.1256 -0.0000
vn 0.9822 -0.1876 -0.0000
vn 0.9050 -0.3304 -0.2680
vn 0.4713 -0.6617 -0.5831
vn 0.1876 -0.7947 -0.5773
vn -0.0385 -0.6617 -0.7488
vn -0.4089 -0.6617 -0.6284
vn -0.4911 -0.7947 -0.3568
vn -0.7240 -0.6617 -0.1947
vn -0.7240 -0.6617 0.1947
vn -0.4911 -0.7947 0.3568
vn -0.4089 -0.6617 0.6284
vn 0.7002 -0.6617 -0.2680
vn 0.6071 -0.7947 -0.0000
vn -0.7943 0.1899 -0.5771
vn -0.0385 -0.6617 0.7488
vn 0.1876 -0.7947 0.5773
vn 0.4713 -0.6617 0.5831
vn 1.0000 -0.0000 0.0001
vn -0.2680 -0.9435 0.1947
vn -0.8090 -0.0000 -0.5878
vn 0.8737 -0.0000 -0.4864
vn 0.3090 -0.0000 0.9511
vn -0.8090 -0.0000 0.5878
vn 1.0000 -0.0000 -0.0001
vn 0.2947 0.3011 0.9069
vn 0.3090 -0.0000 -0.9511
vn 0.2949 0.2986 -0.9077
vn -0.0000 -1.0000 -0.0000
vn -0.0000 -0.3151 -0.9491
vn 1.0000 -0.0000 -0.0000
vn -0.7940 0.1915 0.5769
vn -0.0000 -0.3125 0.9499
vn 0.7861 0.6181 -0.0000
vn -0.7861 0.6182 -0.0000
vn 0.8737 -0.0000 0.4864
vn 0.7861 -0.6181 -0.0000
vn -0.7861 -0.6182 -0.0000
vt 0.363637 0.078731
vt 0.363637 0.048439
vt 0.391603 0.048439
vt 0.409092 0.078731
vt 0.272728 0.157461
vt 0.318182 0.078731
vt 0.363637 0.157461
vt 0.699307 0.048439
vt 0.755239 0.048439
vt 0.772727 0.078731
vt 0.681818 0.078731
vt 0.545455 0.048439
vt 0.573421 0.048439
vt 0.590909 0.078731
vt 0.545455 0.078731
vt 0.181819 0.048439
vt 0.209785 0.048439
vt 0.227273 0.078731
vt 0.181819 0.078731
vt 0.318182 0.236191
vt 0.090910 0.157461
vt 0.181819 0.157461
vt 0.136365 0.236191
vt 0.818182 0.157461
vt 0.909091 0.157461
vt 0.863636 0.236191
vt 0.636364 0.157461
vt 0.727273 0.157461
vt 0.681818 0.236191
vt 0.454546 0.157461
vt 0.545455 0.157461
vt 0.500000 0.236191
vt 0.227273 0.236191
vt 0.045455 0.236191
vt 0.772727 0.236191
vt 0.590909 0.236191
vt 0.409092 0.236191
vt 0.181819 0.314921
vt 0.272728 0.314921
vt 0.227273 0.393651
vt 0.000000 0.314921
vt 0.090910 0.314921
vt 0.045455 0.393651
vt 0.727273 0.314921
vt 0.818182 0.314921
vt 0.772727 0.393651
vt 0.545455 0.314921
vt 0.636364 0.314921
vt 0.590909 0.393651
vt 0.363637 0.314921
vt 0.454546 0.314921
vt 0.409092 0.393651
vt 0.500000 0.393651
vt 0.454546 0.472382
vt 0.681818 0.393651
vt 0.636364 0.472382
vt 0.863636 0.393651
vt 0.818182 0.472382
vt 0.909091 0.314921
vt 0.136365 0.393651
vt 0.090910 0.472382
vt 0.318182 0.393651
vt 0.272728 0.472382
vt 0.954545 0.236191
vt 1.000000 0.157461
vt 0.500000 0.078731
vt 0.863636 0.078731
vt 0.954545 0.078731
vt 0.136365 0.078731
vt 0.363637 0.048439
vt 0.335671 0.048439
vt 0.881125 0.048439
vt 0.937057 0.048439
vt 0.545455 0.048439
vt 0.573414 0.048439
vt 0.517496 0.048439
vt 0.209778 0.048439
vt 0.937057 0.048439
vt 0.391603 0.048439
vt 0.153853 0.048439
vt 0.517489 0.048439
vt 0.153860 0.048439
vt 0.244762 0.048439
vt 0.653853 0.048439
vt 0.426580 0.048439
vt 0.608398 0.048439
vt 0.181819 0.048439
s 0
f 53/1/1 54/2/1 46/3/1 17/4/1
f 2/5/2 14/6/2 16/7/2
f 45/8/3 44/9/3 18/10/3 20/11/3
f 60/12/4 45/13/4 20/14/4 57/15/4
f 59/16/5 47/17/5 14/18/5 58/19/5
f 2/5/6 16/7/6 23/20/6
f 3/21/7 15/22/7 25/23/7
f 4/24/8 19/25/8 27/26/8
f 5/27/9 21/28/9 29/29/9
f 6/30/10 22/31/10 31/32/10
f 2/5/11 23/20/11 26/33/11
f 3/21/12 25/23/12 28/34/12
f 4/24/13 27/26/13 30/35/13
f 5/27/14 29/29/14 32/36/14
f 6/30/15 31/32/15 24/37/15
f 7/38/16 33/39/16 38/40/16
f 8/41/17 34/42/17 40/43/17
f 9/44/18 35/45/18 41/46/18
f 10/47/19 36/48/19 42/49/19
f 11/50/20 37/51/20 39/52/20
f 39/52/21 42/53/21 12/54/21
f 39/52/22 37/51/22 42/53/22
f 37/51/23 10/47/23 42/53/23
f 42/49/24 41/55/24 12/56/24
f 42/49/25 36/48/25 41/55/25
f 36/48/26 9/44/26 41/55/26
f 41/46/27 40/57/27 12/58/27
f 41/46/28 35/45/28 40/57/28
f 35/45/29 8/59/29 40/57/29
f 40/43/30 38/60/30 12/61/30
f 40/43/31 34/42/31 38/60/31
f 34/42/32 7/38/32 38/60/32
f 38/40/33 39/62/33 12/63/33
f 38/40/34 33/39/34 39/62/34
f 33/39/35 11/50/35 39/62/35
f 24/37/36 37/51/36 11/50/36
f 24/37/37 31/32/37 37/51/37
f 31/32/38 10/47/38 37/51/38
f 32/36/39 36/48/39 10/47/39
f 32/36/40 29/29/40 36/48/40
f 29/29/41 9/44/41 36/48/41
f 30/35/42 35/45/42 9/44/42
f 30/35/43 27/26/43 35/45/43
f 27/26/44 8/59/44 35/45/44
f 28/34/45 34/42/45 8/41/45
f 28/34/46 25/23/46 34/42/46
f 25/23/47 7/38/47 34/42/47
f 26/33/48 33/39/48 7/38/48
f 26/33/49 23/20/49 33/39/49
f 23/20/50 11/50/50 33/39/50
f 31/32/51 32/36/51 10/47/51
f 31/32/52 22/31/52 32/36/52
f 22/31/53 5/27/53 32/36/53
f 29/29/54 30/35/54 9/44/54
f 29/29/55 21/28/55 30/35/55
f 21/28/56 4/24/56 30/35/56
f 27/26/57 28/64/57 8/59/57
f 27/26/58 19/25/58 28/64/58
f 19/25/59 3/65/59 28/64/59
f 25/23/60 26/33/60 7/38/60
f 25/23/61 15/22/61 26/33/61
f 15/22/62 2/5/62 26/33/62
f 23/20/63 24/37/63 11/50/63
f 23/20/64 16/7/64 24/37/64
f 16/7/65 6/30/65 24/37/65
f 17/66/66 22/31/66 6/30/66
f 17/66/67 57/15/67 20/14/67 22/31/67
f 20/14/68 5/27/68 22/31/68
f 20/11/69 21/28/69 5/27/69
f 20/11/70 18/10/70 21/28/70
f 18/10/71 4/24/71 21/28/71
f 18/67/72 19/25/72 4/24/72
f 18/67/73 13/68/73 19/25/73
f 13/68/74 3/65/74 19/25/74
f 16/7/75 17/4/75 6/30/75
f 16/7/76 14/6/76 53/1/76 17/4/76
f 48/9/77 49/8/77 71/8/77 70/9/77
f 13/69/78 15/22/78 3/21/78
f 13/69/79 58/19/79 14/18/79 15/22/79
f 14/18/80 2/5/80 15/22/80
f 79/70/81 87/71/81 51/71/81 52/2/81
f 44/72/82 43/73/82 13/68/82 18/67/82
f 77/9/83 76/8/83 49/8/83 48/9/83
f 75/74/84 89/75/84 83/74/84 74/76/84
f 87/77/85 86/16/85 56/16/85 51/17/85
f 78/78/86 77/72/86 48/72/86 1/73/86
f 85/79/87 79/70/87 52/2/87 50/3/87
f 14/6/1 47/71/1 54/2/1 53/1/1
f 51/17/88 56/16/88 66/16/88 63/17/88
f 56/16/88 1/80/88 64/80/88 66/16/88
f 60/12/89 46/81/89 85/76/89 84/74/89
f 59/16/85 43/80/85 78/82/85 88/16/85
f 49/13/90 55/12/90 68/12/90 71/13/90
f 43/80/5 59/16/5 58/19/5 13/69/5
f 46/81/4 60/12/4 57/15/4 17/66/4
f 66/83/91 67/84/91 62/85/91 63/71/91
f 64/80/91 65/72/91 67/84/91 66/83/91
f 61/84/92 52/85/92 62/85/92 67/84/92
f 48/72/92 61/84/92 67/84/92 65/72/92
f 52/2/93 51/71/93 63/71/93 62/2/93
f 1/73/94 48/72/94 65/72/94 64/73/94
f 73/84/91 68/86/91 69/81/91 72/85/91
f 70/72/91 71/8/91 68/86/91 73/84/91
f 55/12/90 50/81/90 69/81/90 68/12/90
f 50/3/93 52/2/93 72/2/93 69/3/93
f 52/85/95 61/84/95 73/84/95 72/85/95
f 61/84/95 48/72/95 70/72/95 73/84/95
f 86/16/85 78/80/85 1/80/85 56/16/85
f 82/74/89 85/81/89 50/81/89 55/12/89
f 46/3/87 54/2/87 79/70/87 85/79/87
f 43/73/86 44/72/86 77/72/86 78/78/86
f 45/13/89 60/12/89 84/74/89 76/13/89
f 47/17/85 59/16/85 88/87/85 87/17/85
f 44/9/83 45/8/83 76/8/83 77/9/83
f 54/2/81 47/71/81 87/71/81 79/70/81
f 87/17/96 88/87/96 90/87/96 80/17/96
f 88/16/97 78/82/97 91/82/97 90/16/97
f 76/75/89 82/74/89 55/12/89 49/13/89
f 81/16/98 80/77/98 90/87/98 91/82/98
f 85/81/99 82/74/99 75/74/99 74/81/99
f 78/80/100 86/16/100 81/16/100 91/80/100
f 86/16/99 87/77/99 80/77/99 81/16/99
f 84/74/96 85/76/96 74/76/96 83/74/96
f 82/74/100 76/75/100 89/75/100 75/74/100
f 76/13/97 84/74/97 83/74/97 89/13/97
